<svg height="1166" width="720" xmlns="http://www.w3.org/2000/svg">
<rect height="1166" fill="#555" width="720"></rect>
<text fill="#7f7" font-family="Courier New" font-size="12" xml:space="preserve">
<tspan x="10" y="26">└─┬ create-react-app@1.3.0 </tspan>
<tspan x="10" y="42">  ├─┬ chalk@1.1.3 </tspan>
<tspan x="10" y="58">  │ ├── ansi-styles@2.2.1 </tspan>
<tspan x="10" y="74">  │ ├── escape-string-regexp@1.0.5 </tspan>
<tspan x="10" y="90">  │ ├─┬ has-ansi@2.0.0 </tspan>
<tspan x="10" y="106">  │ │ └── ansi-regex@2.1.1 </tspan>
<tspan x="10" y="122">  │ ├── strip-ansi@3.0.1 </tspan>
<tspan x="10" y="138">  │ └── supports-color@2.0.0 </tspan>
<tspan x="10" y="154">  ├─┬ commander@2.9.0 </tspan>
<tspan x="10" y="170">  │ └── graceful-readlink@1.0.1 </tspan>
<tspan x="10" y="186">  ├─┬ cross-spawn@4.0.2 </tspan>
<tspan x="10" y="202">  │ ├─┬ lru-cache@4.0.2 </tspan>
<tspan x="10" y="218">  │ │ ├── pseudomap@1.0.2 </tspan>
<tspan x="10" y="234">  │ │ └── yallist@2.1.2 </tspan>
<tspan x="10" y="250">  │ └─┬ which@1.2.14 </tspan>
<tspan x="10" y="266">  │   └── isexe@2.0.0 </tspan>
<tspan x="10" y="282">  ├─┬ fs-extra@1.0.0 </tspan>
<tspan x="10" y="298">  │ ├── graceful-fs@4.1.11 </tspan>
<tspan x="10" y="314">  │ ├── jsonfile@2.4.0 </tspan>
<tspan x="10" y="330">  │ └── klaw@1.3.1 </tspan>
<tspan x="10" y="346">  ├─┬ hyperquest@2.1.2 </tspan>
<tspan x="10" y="362">  │ ├─┬ buffer-from@0.1.1 </tspan>
<tspan x="10" y="378">  │ │ └─┬ is-array-buffer-x@1.2.1 </tspan>
<tspan x="10" y="394">  │ │   ├─┬ has-to-string-tag-x@1.2.0 </tspan>
<tspan x="10" y="410">  │ │   │ └── has-symbol-support-x@1.2.0 </tspan>
<tspan x="10" y="426">  │ │   ├─┬ is-object-like-x@1.2.0 </tspan>
<tspan x="10" y="442">  │ │   │ ├── is-function-x@1.2.0 </tspan>
<tspan x="10" y="458">  │ │   │ └── is-primitive@2.0.0 </tspan>
<tspan x="10" y="474">  │ │   └─┬ to-string-tag-x@1.2.0 </tspan>
<tspan x="10" y="490">  │ │     ├── lodash.isnull@3.0.0 </tspan>
<tspan x="10" y="506">  │ │     └── validate.io-undefined@1.0.3 </tspan>
<tspan x="10" y="522">  │ ├─┬ duplexer2@0.0.2 </tspan>
<tspan x="10" y="538">  │ │ └─┬ readable-stream@1.1.14 </tspan>
<tspan x="10" y="554">  │ │   └── isarray@0.0.1 </tspan>
<tspan x="10" y="570">  │ └─┬ through2@0.6.5 </tspan>
<tspan x="10" y="586">  │   ├── readable-stream@1.0.34 </tspan>
<tspan x="10" y="602">  │   └── xtend@4.0.1 </tspan>
<tspan x="10" y="618">  ├── semver@5.3.0 </tspan>
<tspan x="10" y="634">  ├─┬ tar-pack@3.4.0 </tspan>
<tspan x="10" y="650">  │ ├─┬ debug@2.6.3 </tspan>
<tspan x="10" y="666">  │ │ └── ms@0.7.2 </tspan>
<tspan x="10" y="682">  │ ├─┬ fstream@1.0.11 </tspan>
<tspan x="10" y="698">  │ │ ├── inherits@2.0.3 </tspan>
<tspan x="10" y="714">  │ │ └─┬ mkdirp@0.5.1 </tspan>
<tspan x="10" y="730">  │ │   └── minimist@0.0.8 </tspan>
<tspan x="10" y="746">  │ ├─┬ fstream-ignore@1.0.5 </tspan>
<tspan x="10" y="762">  │ │ └─┬ minimatch@3.0.3 </tspan>
<tspan x="10" y="778">  │ │   └─┬ brace-expansion@1.1.6 </tspan>
<tspan x="10" y="794">  │ │     ├── balanced-match@0.4.2 </tspan>
<tspan x="10" y="810">  │ │     └── concat-map@0.0.1 </tspan>
<tspan x="10" y="826">  │ ├─┬ once@1.4.0 </tspan>
<tspan x="10" y="842">  │ │ └── wrappy@1.0.2 </tspan>
<tspan x="10" y="858">  │ ├─┬ readable-stream@2.2.6 </tspan>
<tspan x="10" y="874">  │ │ ├── buffer-shims@1.0.0 </tspan>
<tspan x="10" y="890">  │ │ ├── core-util-is@1.0.2 </tspan>
<tspan x="10" y="906">  │ │ ├── isarray@1.0.0 </tspan>
<tspan x="10" y="922">  │ │ ├── process-nextick-args@1.0.7 </tspan>
<tspan x="10" y="938">  │ │ ├── string_decoder@0.10.31 </tspan>
<tspan x="10" y="954">  │ │ └── util-deprecate@1.0.2 </tspan>
<tspan x="10" y="970">  │ ├─┬ rimraf@2.6.1 </tspan>
<tspan x="10" y="986">  │ │ └─┬ glob@7.1.1 </tspan>
<tspan x="10" y="1002">  │ │   ├── fs.realpath@1.0.0 </tspan>
<tspan x="10" y="1018">  │ │   ├── inflight@1.0.6 </tspan>
<tspan x="10" y="1034">  │ │   └── path-is-absolute@1.0.1 </tspan>
<tspan x="10" y="1050">  │ ├─┬ tar@2.2.1 </tspan>
<tspan x="10" y="1066">  │ │ └── block-stream@0.0.9 </tspan>
<tspan x="10" y="1082">  │ └── uid-number@0.0.6 </tspan>
<tspan x="10" y="1098">  ├─┬ tmp@0.0.31 </tspan>
<tspan x="10" y="1114">  │ └── os-tmpdir@1.0.2 </tspan>
<tspan x="10" y="1130">  └─┬ validate-npm-package-name@3.0.0 </tspan>
<tspan x="10" y="1146">    └── builtins@1.0.3</tspan>
</text>
</svg>
