<svg height="2286" width="720" xmlns="http://www.w3.org/2000/svg">
<rect height="2286" fill="#555" width="720"></rect>
<text fill="#7f7" font-family="Courier New" font-size="12" xml:space="preserve">
<tspan x="10" y="26"></tspan>
<tspan x="10" y="42">&gt; npmdoc-create-react-app@0.0.1 test /home/travis/build/npmdoc/node-npmdoc-create-react-app</tspan>
<tspan x="10" y="58">&gt; (set -e; export PORT=$(utility2 shServerPortRandom); utility2 test test.js)</tspan>
<tspan x="10" y="74"></tspan>
<tspan x="10" y="90"></tspan>
<tspan x="10" y="106">[MODE_BUILD=npmTest] - 2017-04-03T13:59:07Z - npm-testing /home/travis/build/npmdoc/node-npmdoc-\</tspan>
<tspan x="10" y="122">create-react-app</tspan>
<tspan x="10" y="138"></tspan>
<tspan x="10" y="154"></tspan>
<tspan x="10" y="170">covering $ /home/travis/.nvm/versions/node/v6.10.1/bin/node /home/travis/build/npmdoc/node-npmdo\</tspan>
<tspan x="10" y="186">c-create-react-app/test.js</tspan>
<tspan x="10" y="202">merging file:///home/travis/build/npmdoc/node-npmdoc-create-react-app/tmp/build/test-report.json\</tspan>
<tspan x="10" y="218"> to test-report</tspan>
<tspan x="10" y="234">&gt; server listening on http-port 65178</tspan>
<tspan x="10" y="250">Please specify the project directory:</tspan>
<tspan x="10" y="266">  test &lt;project-directory&gt;</tspan>
<tspan x="10" y="282"></tspan>
<tspan x="10" y="298">For example:</tspan>
<tspan x="10" y="314">  test my-react-app</tspan>
<tspan x="10" y="330"></tspan>
<tspan x="10" y="346">Run test --help to see all options.</tspan>
<tspan x="10" y="362">created apidoc file:///home/travis/build/npmdoc/node-npmdoc-create-react-app/tmp/build/apidoc.ht\</tspan>
<tspan x="10" y="378">ml</tspan>
<tspan x="10" y="394"></tspan>
<tspan x="10" y="410"></tspan>
<tspan x="10" y="426">browserTest - created electron entry-page /home/travis/build/npmdoc/node-npmdoc-create-react-app\</tspan>
<tspan x="10" y="442">/tmp/electron.15b341cb3800.070bf7935b18d.html</tspan>
<tspan x="10" y="458"></tspan>
<tspan x="10" y="474">Please specify the project directory:</tspan>
<tspan x="10" y="490">  test &lt;project-directory&gt;</tspan>
<tspan x="10" y="506"></tspan>
<tspan x="10" y="522">For example:</tspan>
<tspan x="10" y="538">  test my-react-app</tspan>
<tspan x="10" y="554"></tspan>
<tspan x="10" y="570">Run test --help to see all options.</tspan>
<tspan x="10" y="586">[node test-case 1 of 6 passed] - testCase_buildLib_default</tspan>
<tspan x="10" y="602">[node test-case 2 of 6 passed] - testCase_buildReadme_default</tspan>
<tspan x="10" y="618">[node test-case 3 of 6 passed] - testCase_buildTest_default</tspan>
<tspan x="10" y="634"></tspan>
<tspan x="10" y="650">browserTest - created electron entry-page /home/travis/build/npmdoc/node-npmdoc-create-react-app\</tspan>
<tspan x="10" y="666">/tmp/electron.15b341cb3b50.8e3523c042921.html</tspan>
<tspan x="10" y="682"></tspan>
<tspan x="10" y="698">Xlib:  extension "RANDR" missing on display ":99.0".</tspan>
<tspan x="10" y="714">Xlib:  extension "RANDR" missing on display ":99.0".</tspan>
<tspan x="10" y="730">&gt; merging file:///home/travis/build/npmdoc/node-npmdoc-create-react-app/tmp/build/test-report.js\</tspan>
<tspan x="10" y="746">on to test-report</tspan>
<tspan x="10" y="762">server listening on http-port 33695</tspan>
<tspan x="10" y="778">Xlib:  extension "RANDR" missing on display ":99.0".</tspan>
<tspan x="10" y="794">merging file:///home/travis/build/npmdoc/node-npmdoc-create-react-app/tmp/build/test-report.json\</tspan>
<tspan x="10" y="810"> to test-report</tspan>
<tspan x="10" y="826">[5929:0403/135908:WARNING:audio_manager.cc(314)] Multiple instances of AudioManager detected</tspan>
<tspan x="10" y="842">[5929:0403/135908:WARNING:audio_manager.cc(275)] Multiple instances of AudioManager detected</tspan>
<tspan x="10" y="858">Xlib:  extension "RANDR" missing on display ":99.0".</tspan>
<tspan x="10" y="874">[5962:0403/135908:ERROR:sandbox_linux.cc(343)] InitializeSandbox() called with multiple threads \</tspan>
<tspan x="10" y="890">in process gpu-process. </tspan>
<tspan x="10" y="906">[5925:0403/135908:WARNING:audio_manager.cc(314)] Multiple instances of AudioManager detected</tspan>
<tspan x="10" y="922">[5925:0403/135908:WARNING:audio_manager.cc(275)] Multiple instances of AudioManager detected</tspan>
<tspan x="10" y="938">[5984:0403/135908:ERROR:sandbox_linux.cc(343)] InitializeSandbox() called with multiple threads \</tspan>
<tspan x="10" y="954">in process gpu-process. </tspan>
<tspan x="10" y="970">[5929:0403/135908:ERROR:browser_gpu_channel_host_factory.cc(131)] Failed to create channel.</tspan>
<tspan x="10" y="986">[5925:0403/135908:ERROR:browser_gpu_channel_host_factory.cc(131)] Failed to create channel.</tspan>
<tspan x="10" y="1002"></tspan>
<tspan x="10" y="1018">browserTest - opened url http://127.0.0.1:65178?modeTest=1</tspan>
<tspan x="10" y="1034"></tspan>
<tspan x="10" y="1050"></tspan>
<tspan x="10" y="1066">browserTest - opened url /home/travis/build/npmdoc/node-npmdoc-create-react-app/tmp/build/apidoc\</tspan>
<tspan x="10" y="1082">.html</tspan>
<tspan x="10" y="1098"></tspan>
<tspan x="10" y="1114">[5929:0403/135910:INFO:CONSOLE(245)] "----------|-----------|-----------|-----------|-----------\</tspan>
<tspan x="10" y="1130">|</tspan>
<tspan x="10" y="1146">File      |   % Stmts |% Branches |   % Funcs |   % Lines |</tspan>
<tspan x="10" y="1162">----------|-----------|-----------|-----------|-----------|</tspan>
<tspan x="10" y="1178">----------|-----------|-----------|-----------|-----------|</tspan>
<tspan x="10" y="1194">All files |       100 |       100 |       100 |       100 |</tspan>
<tspan x="10" y="1210">----------|-----------|-----------|-----------|-----------|</tspan>
<tspan x="10" y="1226">", source: file:///home/travis/build/npmdoc/node-npmdoc-create-react-app/tmp/electron.15b341cb3b\</tspan>
<tspan x="10" y="1242">50.8e3523c042921.html (245)</tspan>
<tspan x="10" y="1258">[5929:0403/135910:INFO:CONSOLE(245)] "created coverage file:///tmp/build/coverage.html/index.htm\</tspan>
<tspan x="10" y="1274">l", source: file:///home/travis/build/npmdoc/node-npmdoc-create-react-app/tmp/electron.15b341cb3\</tspan>
<tspan x="10" y="1290">b50.8e3523c042921.html (245)</tspan>
<tspan x="10" y="1306">[node test-case 4 of 6 passed] - testCase_buildApp_default</tspan>
<tspan x="10" y="1322"></tspan>
<tspan x="10" y="1338">browserTest - created screenCapture file:///home/travis/build/npmdoc/node-npmdoc-create-react-ap\</tspan>
<tspan x="10" y="1354">p/tmp/build/screenCapture.npmTest.browser._2Fhome_2Ftravis_2Fbuild_2Fnpmdoc_2Fnode-npmdoc-create\</tspan>
<tspan x="10" y="1370">-react-app_2Ftmp_2Fbuild_2Fapidoc.html.png</tspan>
<tspan x="10" y="1386"></tspan>
<tspan x="10" y="1402"></tspan>
<tspan x="10" y="1418">browserTest - created screenCapture file:///home/travis/build/npmdoc/node-npmdoc-create-react-ap\</tspan>
<tspan x="10" y="1434">p/tmp/build/screenCapture.npmTest.browser..png</tspan>
<tspan x="10" y="1450"></tspan>
<tspan x="10" y="1466">browserTest - created screenCapture file:///home/travis/build/npmdoc/node-npmdoc-create-react-ap\</tspan>
<tspan x="10" y="1482">p/tmp/build/screenCapture.npmTest.browser..html</tspan>
<tspan x="10" y="1498"></tspan>
<tspan x="10" y="1514">browserTest - exit-code 0 - http://127.0.0.1:65178?modeTest=1</tspan>
<tspan x="10" y="1530"></tspan>
<tspan x="10" y="1546"></tspan>
<tspan x="10" y="1562">browserTest - merged coverage from /home/travis/build/npmdoc/node-npmdoc-create-react-app/tmp/co\</tspan>
<tspan x="10" y="1578">verage.npmTest.browser.%2F.json</tspan>
<tspan x="10" y="1594"></tspan>
<tspan x="10" y="1610"></tspan>
<tspan x="10" y="1626">browserTest - merging test-report from /home/travis/build/npmdoc/node-npmdoc-create-react-app/tm\</tspan>
<tspan x="10" y="1642">p/test-report.npmTest.browser.%2F.json</tspan>
<tspan x="10" y="1658"></tspan>
<tspan x="10" y="1674">[node test-case 5 of 6 passed] - testCase_webpage_default</tspan>
<tspan x="10" y="1690">browserTest - created screenCapture file:///home/travis/build/npmdoc/node-npmdoc-create-react-ap\</tspan>
<tspan x="10" y="1706">p/tmp/build/screenCapture.npmTest.browser._2Fhome_2Ftravis_2Fbuild_2Fnpmdoc_2Fnode-npmdoc-create\</tspan>
<tspan x="10" y="1722">-react-app_2Ftmp_2Fbuild_2Fapidoc.html.html</tspan>
<tspan x="10" y="1738"></tspan>
<tspan x="10" y="1754">browserTest - exit-code 0 - /home/travis/build/npmdoc/node-npmdoc-create-react-app/tmp/build/api\</tspan>
<tspan x="10" y="1770">doc.html</tspan>
<tspan x="10" y="1786"></tspan>
<tspan x="10" y="1802">[node test-case 6 of 6 passed] - testCase_buildApidoc_default</tspan>
<tspan x="10" y="1818">-------------------------------------|-----------|-----------|-----------|-----------|</tspan>
<tspan x="10" y="1834">File                                 |   % Stmts |% Branches |   % Funcs |   % Lines |</tspan>
<tspan x="10" y="1850">-------------------------------------|-----------|-----------|-----------|-----------|</tspan>
<tspan x="10" y="1866">   node-npmdoc-create-react-app/     |       100 |       100 |       100 |       100 |</tspan>
<tspan x="10" y="1882">      example.js                     |       100 |       100 |       100 |       100 |</tspan>
<tspan x="10" y="1898">      lib.npmdoc_create_react_app.js |       100 |       100 |       100 |       100 |</tspan>
<tspan x="10" y="1914">      test.js                        |       100 |       100 |       100 |       100 |</tspan>
<tspan x="10" y="1930">-------------------------------------|-----------|-----------|-----------|-----------|</tspan>
<tspan x="10" y="1946">All files                            |       100 |       100 |       100 |       100 |</tspan>
<tspan x="10" y="1962">-------------------------------------|-----------|-----------|-----------|-----------|</tspan>
<tspan x="10" y="1978"></tspan>
<tspan x="10" y="1994">created coverage file:///home/travis/build/npmdoc/node-npmdoc-create-react-app/tmp/build/coverag\</tspan>
<tspan x="10" y="2010">e.html/index.html</tspan>
<tspan x="10" y="2026">merging file:///home/travis/build/npmdoc/node-npmdoc-create-react-app/tmp/build/test-report.json\</tspan>
<tspan x="10" y="2042"> to test-report</tspan>
<tspan x="10" y="2058"></tspan>
<tspan x="10" y="2074">-------------------------------------------------------</tspan>
<tspan x="10" y="2090">| test-report - buildNpmdoc - node - linux v6.10.1 - 2017-04-03T13:58:33.132Z</tspan>
<tspan x="10" y="2106">|   44734 ms            0 failed        6 passed      |</tspan>
<tspan x="10" y="2122">-------------------------------------------------------</tspan>
<tspan x="10" y="2138"></tspan>
<tspan x="10" y="2154">created test-report file:///home/travis/build/npmdoc/node-npmdoc-create-react-app/tmp/build/test\</tspan>
<tspan x="10" y="2170">-report.html</tspan>
<tspan x="10" y="2186"></tspan>
<tspan x="10" y="2202"></tspan>
<tspan x="10" y="2218">npmTest - 0 failed tests</tspan>
<tspan x="10" y="2234"></tspan>
<tspan x="10" y="2250"></tspan>
<tspan x="10" y="2266">[MODE_BUILD=npmTest] - 2017-04-03T13:59:20Z - EXIT_CODE - 0</tspan>
</text>
</svg>
